<?xml version="1.0" encoding="UTF-8"?>
<svg id="Layer_1" xmlns="http://www.w3.org/2000/svg" version="1.1" viewBox="0 0 1200 580">
  <!-- Generator: Adobe Illustrator 29.1.0, SVG Export Plug-In . SVG Version: 2.1.0 Build 142)  -->
  <defs>
    <style>
      .st0, .st1, .st2, .st3, .st4 {
        fill: #8c1515;
      }

      .st0, .st5 {
        fill-opacity: .1;
      }

      .st6 {
        fill: #dad7cb;
      }

      .st1, .st7, .st8, .st2, .st9, .st10, .st3, .st11, .st12, .st13, .st14 {
        isolation: isolate;
      }

      .st1, .st7, .st8, .st2, .st12 {
        font-size: 14px;
      }

      .st1, .st3 {
        font-family: Arial-BoldMT, Arial;
        font-weight: 700;
      }

      .st7, .st5, .st15 {
        fill: #4d4f53;
      }

      .st7, .st8, .st2, .st9, .st11, .st12, .st13 {
        font-family: ArialMT, Arial;
      }

      .st16, .st8, .st17, .st13, .st14 {
        fill: #fff;
      }

      .st16, .st18 {
        stroke: #2e2d29;
      }

      .st9, .st11, .st12 {
        fill: #2e2d29;
      }

      .st9, .st13 {
        font-size: 10px;
      }

      .st3 {
        font-size: 16px;
      }

      .st19 {
        fill-opacity: .2;
      }

      .st19, .st20 {
        fill: #d2c295;
      }

      .st11 {
        font-size: 12px;
      }

      .st18 {
        fill: none;
      }

      .st14 {
        font-family: CourierNewPSMT, 'Courier New';
        font-size: 9px;
      }
    </style>
  </defs>
  <rect class="st17" width="1200" height="600.5"/>
  <g class="st10">
    <text class="st3" transform="translate(269.2 40)"><tspan x="0" y="0">Future Topology and Code Execution Hierarchy</tspan></text>
  </g>
  <rect class="st16" x="900" y="60" width="280" height="521.9"/>
  <rect class="st4" x="910" y="110" width="260" height="460.6" rx="5" ry="5"/>
  <rect class="st15" x="919" y="181.4" width="239.3" height="351.7" rx="5" ry="5"/>
  <g class="st10">
    <text class="st1" transform="translate(965.9 85)"><tspan x="0" y="0">Future Topology Code</tspan></text>
  </g>
  <g>
    <g class="st10">
      <text class="st14" transform="translate(930.4 142.5)"><tspan x="0" y="0">thost &lt;- Sys.info()[[&quot;nodename&quot;]]</tspan></text>
    </g>
    <g class="st10">
      <text class="st14" transform="translate(930.4 157.5)"><tspan x="0" y="0">tpid &lt;- Sys.getpid()</tspan></text>
    </g>
    <g class="st10">
      <text class="st14" transform="translate(920.4 127.5)"><tspan x="0" y="0">x %&lt;-% {</tspan></text>
    </g>
    <g class="st10">
      <text class="st14" transform="translate(930.4 172.5)"><tspan x="0" y="0">y &lt;- listenv()</tspan></text>
    </g>
  </g>
  <g>
    <rect class="st20" x="942.8" y="279.6" width="209.1" height="200.8" rx="5" ry="5"/>
    <g>
      <g class="st10">
        <text class="st14" transform="translate(948.5 295)"><tspan x="0" y="0">## Bottom level: Execute in parallel</tspan></text>
      </g>
      <g class="st10">
        <text class="st14" transform="translate(948.5 310)"><tspan x="0" y="0">## on compute node cores</tspan></text>
      </g>
      <g class="st10">
        <text class="st14" transform="translate(948.5 325)"><tspan x="0" y="0">for (jj in 1:2) {</tspan></text>
      </g>
      <g class="st10">
        <text class="st14" transform="translate(958.5 340)"><tspan x="0" y="0">z[[jj]] %&lt;-% data.frame(</tspan></text>
      </g>
      <g class="st10">
        <text class="st14" transform="translate(968.5 355)"><tspan x="0" y="0">task = task,</tspan></text>
      </g>
      <g class="st10">
        <text class="st14" transform="translate(968.5 370)"><tspan x="0" y="0">top.host = thost,</tspan></text>
      </g>
      <g class="st10">
        <text class="st14" transform="translate(968.5 385)"><tspan x="0" y="0">top.pid = tpid,</tspan></text>
      </g>
      <g class="st10">
        <text class="st14" transform="translate(968.5 400)"><tspan x="0" y="0">mid.host = mhost,</tspan></text>
      </g>
      <g class="st10">
        <text class="st14" transform="translate(968.5 415)"><tspan x="0" y="0">mid.pid = mpid,</tspan></text>
      </g>
      <g class="st10">
        <text class="st14" transform="translate(968.5 430)"><tspan x="0" y="0">host = Sys.info()[[&quot;nodename&quot;]],</tspan></text>
      </g>
      <g class="st10">
        <text class="st14" transform="translate(968.5 445)"><tspan x="0" y="0">pid = Sys.getpid()</tspan></text>
      </g>
      <g class="st10">
        <text class="st14" transform="translate(958.5 460)"><tspan x="0" y="0">)</tspan></text>
      </g>
      <g class="st10">
        <text class="st14" transform="translate(948.5 475)"><tspan x="0" y="0">}</tspan></text>
      </g>
    </g>
  </g>
  <g>
    <g>
      <g class="st10">
        <text class="st14" transform="translate(928.8 196.3)"><tspan x="0" y="0">## Middle level: Execute on compute nodes</tspan></text>
      </g>
      <g class="st10">
        <text class="st14" transform="translate(928.8 211.3)"><tspan x="0" y="0">for (task in 1:4) {</tspan></text>
      </g>
      <g class="st10">
        <text class="st14" transform="translate(938.8 226.3)"><tspan x="0" y="0">y[[task]] %&lt;-% {</tspan></text>
      </g>
      <g class="st10">
        <text class="st14" transform="translate(948.8 241.3)"><tspan x="0" y="0">mhost &lt;- Sys.info()[[&quot;nodename&quot;]]</tspan></text>
      </g>
      <g class="st10">
        <text class="st14" transform="translate(948.8 256.3)"><tspan x="0" y="0">mpid &lt;- Sys.getpid()</tspan></text>
      </g>
      <g class="st10">
        <text class="st14" transform="translate(948.8 271.3)"><tspan x="0" y="0">z &lt;- listenv()</tspan></text>
      </g>
    </g>
    <g class="st10">
      <text class="st14" transform="translate(949.4 495.5)"><tspan x="0" y="0">Reduce(rbind, z)</tspan></text>
    </g>
    <g class="st10">
      <text class="st14" transform="translate(939.4 510.5)"><tspan x="0" y="0">}</tspan></text>
    </g>
    <g class="st10">
      <text class="st14" transform="translate(929.4 525.5)"><tspan x="0" y="0">}</tspan></text>
    </g>
  </g>
  <g class="st10">
    <text class="st14" transform="translate(931.2 544.8)"><tspan x="0" y="0">Reduce(rbind, y)</tspan></text>
  </g>
  <g class="st10">
    <text class="st14" transform="translate(920.8 562.1)"><tspan x="0" y="0">} %seed% 290</tspan></text>
  </g>
  <rect class="st0" x="50" y="60" width="800" height="120" rx="10" ry="10"/>
  <g class="st10">
    <text class="st2" transform="translate(60 80)"><tspan x="0" y="0">Login</tspan></text>
  </g>
  <rect class="st4" x="350" y="90" width="200" height="60" rx="5" ry="5"/>
  <g class="st10">
    <text class="st8" transform="translate(414.6 116.2)"><tspan x="0" y="0">Login Node</tspan></text>
  </g>
  <g class="st10">
    <text class="st13" transform="translate(425.4 131.2)"><tspan x="0" y="0">(thost, tpid)</tspan></text>
  </g>
  <rect class="st5" x="50" y="200" width="800" height="160" rx="10" ry="10"/>
  <g class="st10">
    <text class="st7" transform="translate(60 220)"><tspan x="0" y="0">Batchtools Slurm</tspan></text>
  </g>
  <g id="compute-nodes">
    <rect class="st15" x="80" y="250" width="140" height="80" rx="5" ry="5"/>
    <g class="st10">
      <text class="st8" transform="translate(97.1 280)"><tspan x="0" y="0">Compute Node 1</tspan></text>
    </g>
    <g class="st10">
      <text class="st13" transform="translate(103.3 300)"><tspan x="0" y="0">(task 1, mhost, mpid)</tspan></text>
    </g>
    <rect class="st15" x="280" y="250" width="140" height="80" rx="5" ry="5"/>
    <g class="st10">
      <text class="st8" transform="translate(297.1 280)"><tspan x="0" y="0">Compute Node 2</tspan></text>
    </g>
    <g class="st10">
      <text class="st13" transform="translate(303.3 300)"><tspan x="0" y="0">(task 2, mhost, mpid)</tspan></text>
    </g>
    <rect class="st15" x="480" y="250" width="140" height="80" rx="5" ry="5"/>
    <g class="st10">
      <text class="st8" transform="translate(497.1 280)"><tspan x="0" y="0">Compute Node 3</tspan></text>
    </g>
    <g class="st10">
      <text class="st13" transform="translate(503.3 300)"><tspan x="0" y="0">(task 3, mhost, mpid)</tspan></text>
    </g>
    <rect class="st15" x="680" y="250" width="140" height="80" rx="5" ry="5"/>
    <g class="st10">
      <text class="st8" transform="translate(697.1 280)"><tspan x="0" y="0">Compute Node 4</tspan></text>
    </g>
    <g class="st10">
      <text class="st13" transform="translate(703.3 300)"><tspan x="0" y="0">(task 4, mhost, mpid)</tspan></text>
    </g>
  </g>
  <rect class="st19" x="50" y="380" width="800" height="160" rx="10" ry="10"/>
  <g class="st10">
    <text class="st12" transform="translate(61 526.6)"><tspan x="0" y="0">Multisession</tspan></text>
  </g>
  <g id="cores">
    <rect class="st6" x="80" y="420" width="60" height="80" rx="5" ry="5"/>
    <g class="st10">
      <text class="st11" transform="translate(92 450)"><tspan x="0" y="0">Core 1</tspan></text>
    </g>
    <g class="st10">
      <text class="st9" transform="translate(95.5 470)"><tspan x="0" y="0">Task 1</tspan></text>
    </g>
    <rect class="st6" x="160" y="420" width="60" height="80" rx="5" ry="5"/>
    <g class="st10">
      <text class="st11" transform="translate(172 450)"><tspan x="0" y="0">Core 2</tspan></text>
    </g>
    <g class="st10">
      <text class="st9" transform="translate(175.5 470)"><tspan x="0" y="0">Task 1</tspan></text>
    </g>
    <rect class="st6" x="280" y="420" width="60" height="80" rx="5" ry="5"/>
    <g class="st10">
      <text class="st11" transform="translate(292 450)"><tspan x="0" y="0">Core 1</tspan></text>
    </g>
    <g class="st10">
      <text class="st9" transform="translate(295.5 470)"><tspan x="0" y="0">Task 2</tspan></text>
    </g>
    <rect class="st6" x="360" y="420" width="60" height="80" rx="5" ry="5"/>
    <g class="st10">
      <text class="st11" transform="translate(372 450)"><tspan x="0" y="0">Core 2</tspan></text>
    </g>
    <g class="st10">
      <text class="st9" transform="translate(375.5 470)"><tspan x="0" y="0">Task 2</tspan></text>
    </g>
    <rect class="st6" x="480" y="420" width="60" height="80" rx="5" ry="5"/>
    <g class="st10">
      <text class="st11" transform="translate(492 450)"><tspan x="0" y="0">Core 1</tspan></text>
    </g>
    <g class="st10">
      <text class="st9" transform="translate(495.5 470)"><tspan x="0" y="0">Task 3</tspan></text>
    </g>
    <rect class="st6" x="560" y="420" width="60" height="80" rx="5" ry="5"/>
    <g class="st10">
      <text class="st11" transform="translate(572 450)"><tspan x="0" y="0">Core 2</tspan></text>
    </g>
    <g class="st10">
      <text class="st9" transform="translate(575.5 470)"><tspan x="0" y="0">Task 3</tspan></text>
    </g>
    <rect class="st6" x="680" y="420" width="60" height="80" rx="5" ry="5"/>
    <g class="st10">
      <text class="st11" transform="translate(692 450)"><tspan x="0" y="0">Core 1</tspan></text>
    </g>
    <g class="st10">
      <text class="st9" transform="translate(695.5 470)"><tspan x="0" y="0">Task 4</tspan></text>
    </g>
    <rect class="st6" x="760" y="420" width="60" height="80" rx="5" ry="5"/>
    <g class="st10">
      <text class="st11" transform="translate(772 450)"><tspan x="0" y="0">Core 2</tspan></text>
    </g>
    <g class="st10">
      <text class="st9" transform="translate(775.5 470)"><tspan x="0" y="0">Task 4</tspan></text>
    </g>
  </g>
  <g>
    <line class="st18" x1="450" y1="150" x2="150" y2="250"/>
    <line class="st18" x1="450" y1="150" x2="350" y2="250"/>
    <line class="st18" x1="450" y1="150" x2="550" y2="250"/>
    <line class="st18" x1="450" y1="150" x2="750" y2="250"/>
    <line class="st18" x1="150" y1="330" x2="110" y2="420"/>
    <line class="st18" x1="150" y1="330" x2="190" y2="420"/>
    <line class="st18" x1="350" y1="330" x2="310" y2="420"/>
    <line class="st18" x1="350" y1="330" x2="390" y2="420"/>
    <line class="st18" x1="550" y1="330" x2="510" y2="420"/>
    <line class="st18" x1="550" y1="330" x2="590" y2="420"/>
    <line class="st18" x1="750" y1="330" x2="710" y2="420"/>
    <line class="st18" x1="750" y1="330" x2="790" y2="420"/>
  </g>
  <g class="st10">
    <text class="st9" transform="translate(88.2 483.3)"><tspan x="0" y="0">(host, pid)</tspan></text>
  </g>
  <g class="st10">
    <text class="st9" transform="translate(170 483.3)"><tspan x="0" y="0">(host, pid)</tspan></text>
  </g>
  <g class="st10">
    <text class="st9" transform="translate(289.1 483.3)"><tspan x="0" y="0">(host, pid)</tspan></text>
  </g>
  <g class="st10">
    <text class="st9" transform="translate(370.9 483.3)"><tspan x="0" y="0">(host, pid)</tspan></text>
  </g>
  <g class="st10">
    <text class="st9" transform="translate(488.2 485.4)"><tspan x="0" y="0">(host, pid)</tspan></text>
  </g>
  <g class="st10">
    <text class="st9" transform="translate(570 485.4)"><tspan x="0" y="0">(host, pid)</tspan></text>
  </g>
  <g class="st10">
    <text class="st9" transform="translate(689.1 485.4)"><tspan x="0" y="0">(host, pid)</tspan></text>
  </g>
  <g class="st10">
    <text class="st9" transform="translate(770.9 485.4)"><tspan x="0" y="0">(host, pid)</tspan></text>
  </g>
</svg>