<svg xmlns="http://www.w3.org/2000/svg" viewBox="0 0 900 500">
    <!-- Background -->
    <rect width="900" height="500" fill="#ffffff"/>

    <!-- Define markers for arrows -->
    <defs>
        <marker id="arrowhead" markerWidth="10" markerHeight="7" refX="9" refY="3.5" orient="auto">
            <polygon points="0 0, 10 3.5, 0 7" fill="#4D4F53"/>
        </marker>
        <marker id="arrowstart" markerWidth="10" markerHeight="7" refX="1" refY="3.5" orient="auto">
            <polygon points="10 0, 0 3.5, 10 7" fill="#4D4F53"/>
        </marker>
    </defs>

    <!-- Stanford AFS Storage -->
    <rect x="750" y="40" width="120" height="360" rx="5" fill="#4D4F53" fill-opacity="0.1" stroke="#4D4F53" stroke-width="2"/>
    <text x="810" y="60" text-anchor="middle" font-size="16" font-weight="bold" fill="#4D4F53">Stanford AFS</text>
    <rect x="770" y="80" width="80" height="30" rx="3" fill="#4D4F53" fill-opacity="0.2"/>
    <rect x="770" y="120" width="80" height="30" rx="3" fill="#4D4F53" fill-opacity="0.2"/>
    <rect x="770" y="160" width="80" height="30" rx="3" fill="#4D4F53" fill-opacity="0.2"/>

    <!-- User Device -->
    <rect x="50" y="60" width="100" height="60" rx="5" fill="#4D4F53" fill-opacity="0.1"/>
    <text x="100" y="95" text-anchor="middle" font-size="14">User Device</text>

    <!-- Head Nodes (Rice) Container -->
    <rect x="250" y="40" width="300" height="100" rx="5" fill="#ffffff" stroke="#8C1515" stroke-width="2"/>
    <text x="400" y="60" text-anchor="middle" font-size="16" font-weight="bold" fill="#8C1515">Head Nodes (rice)</text>

    <!-- Individual Head Nodes -->
    <rect x="270" y="80" width="50" height="40" rx="3" fill="#8C1515"/>
    <rect x="340" y="80" width="50" height="40" rx="3" fill="#8C1515"/>
    <rect x="410" y="80" width="50" height="40" rx="3" fill="#8C1515"/>
    <rect x="480" y="80" width="50" height="40" rx="3" fill="#8C1515"/>

    <!-- Compute Clusters Container -->
    <rect x="100" y="200" width="600" height="200" rx="5" fill="#ffffff" stroke="#8C1515" stroke-width="2"/>
    <text x="400" y="220" text-anchor="middle" font-size="16" font-weight="bold" fill="#8C1515">Compute Clusters</text>

    <!-- Individual Clusters -->
    <!-- Iron -->
    <rect x="120" y="240" width="120" height="140" rx="5" fill="#8C1515" fill-opacity="0.7"/>
    <text x="180" y="270" text-anchor="middle" font-size="14" fill="white">Iron</text>
    <rect x="130" y="280" width="20" height="20" fill="white" opacity="0.5"/>
    <rect x="160" y="280" width="20" height="20" fill="white" opacity="0.5"/>
    <rect x="190" y="280" width="20" height="20" fill="white" opacity="0.5"/>
    <rect x="130" y="310" width="20" height="20" fill="white" opacity="0.5"/>
    <rect x="160" y="310" width="20" height="20" fill="white" opacity="0.5"/>
    <rect x="190" y="310" width="20" height="20" fill="white" opacity="0.5"/>

    <!-- Rye -->
    <rect x="260" y="240" width="120" height="140" rx="5" fill="#4D4F53" fill-opacity="0.7"/>
    <text x="320" y="270" text-anchor="middle" font-size="14" fill="white">Rye</text>
    <rect x="270" y="280" width="20" height="20" fill="white" opacity="0.5"/>
    <rect x="300" y="280" width="20" height="20" fill="white" opacity="0.5"/>
    <rect x="330" y="280" width="20" height="20" fill="white" opacity="0.5"/>
    <rect x="270" y="310" width="20" height="20" fill="white" opacity="0.5"/>
    <rect x="300" y="310" width="20" height="20" fill="white" opacity="0.5"/>
    <rect x="330" y="310" width="20" height="20" fill="white" opacity="0.5"/>

    <!-- Wheat -->
    <rect x="400" y="240" width="120" height="140" rx="5" fill="#8C1515" fill-opacity="0.6"/>
    <text x="460" y="270" text-anchor="middle" font-size="14" fill="white">Wheat</text>
    <rect x="410" y="280" width="20" height="20" fill="white" opacity="0.5"/>
    <rect x="440" y="280" width="20" height="20" fill="white" opacity="0.5"/>
    <rect x="470" y="280" width="20" height="20" fill="white" opacity="0.5"/>
    <rect x="410" y="310" width="20" height="20" fill="white" opacity="0.5"/>
    <rect x="440" y="310" width="20" height="20" fill="white" opacity="0.5"/>
    <rect x="470" y="310" width="20" height="20" fill="white" opacity="0.5"/>

    <!-- Oat -->
    <rect x="540" y="240" width="120" height="140" rx="5" fill="#4D4F53" fill-opacity="0.8"/>
    <text x="600" y="270" text-anchor="middle" font-size="14" fill="white">Oat</text>
    <text x="600" y="290" text-anchor="middle" font-size="10" fill="white">(GPU)</text>
    <rect x="550" y="310" width="20" height="20" fill="white" opacity="0.5"/>
    <rect x="580" y="310" width="20" height="20" fill="white" opacity="0.5"/>
    <rect x="610" y="310" width="20" height="20" fill="white" opacity="0.5"/>

    <!-- Arrows and Connections -->
    <!-- User to Head Nodes -->
    <path d="M 150 90 L 240 90" stroke="#4D4F53" stroke-width="2" marker-end="url(#arrowhead)"/>

    <!-- Head Nodes to Compute Clusters -->
    <path d="M 400 140 C 400 160 400 180 400 190" stroke="#4D4F53" stroke-width="2" marker-end="url(#arrowhead)"/>

    <!-- AFS Storage Connections -->
    <!-- To/From Head Nodes -->
    <path d="M 550 90 L 750 90" stroke="#4D4F53" stroke-width="2"
          marker-end="url(#arrowhead)"
          marker-start="url(#arrowstart)"
          stroke-dasharray="5,5"/>

    <!-- To/From Compute Clusters -->
    <path d="M 750 300 L 700 300" stroke="#4D4F53" stroke-width="2"
          marker-end="url(#arrowhead)"
          marker-start="url(#arrowstart)"
          stroke-dasharray="5,5"/>

    <!-- Legend -->
    <rect x="50" y="430" width="300" height="60" rx="5" fill="white" stroke="#4D4F53" stroke-width="1"/>
    <text x="60" y="450" font-size="12" fill="#4D4F53">Legend:</text>
    <line x1="60" y1="470" x2="120" y2="470" stroke="#4D4F53" stroke-width="2" marker-end="url(#arrowhead)"/>
    <text x="130" y="474" font-size="12" fill="#4D4F53">Job Flow</text>
    <line x1="200" y1="470" x2="260" y2="470" stroke="#4D4F53" stroke-width="2"
          marker-end="url(#arrowhead)"
          marker-start="url(#arrowstart)"
          stroke-dasharray="5,5"/>
    <text x="270" y="474" font-size="12" fill="#4D4F53">Data Access</text>
</svg>
